<?xml version="1.0" encoding="utf-8"?>
<!-- Generator: Adobe Illustrator 19.2.1, SVG Export Plug-In . SVG Version: 6.00 Build 0)  -->
<svg version="1.1" id="Layer_1" xmlns="http://www.w3.org/2000/svg" xmlns:xlink="http://www.w3.org/1999/xlink" x="0px" y="0px"
	 viewBox="0 0 48 48" style="enable-background:new 0 0 48 48;" xml:space="preserve">
<style type="text/css">
	.st0{fill:none;}
	.st1{fill:#666666;}
</style>
<g>
	<title>background</title>
	<rect id="canvas_background" x="-1" y="-1" class="st0" width="582" height="402"/>
</g>
<g>
	<title>Layer 1</title>
	<path id="svg_3" class="st1" d="M24,35.4c-0.2,0-0.3,0-0.5-0.1C23,34.9,11,27.5,11,18.2c0-5.3,3.5-8.1,7-8.1c2.2,0,4.6,1.1,6,3.6
		c1.4-2.5,3.8-3.7,6.1-3.7c3.4,0,6.9,2.6,6.9,7.5c0,8.6-11.9,17.3-12.4,17.6C24.4,35.3,24.2,35.4,24,35.4z M18,12.3
		c-2.4,0-5,1.9-5,5.9c0,7,8.7,13.3,11,14.8c2.2-1.7,11-8.9,11-15.5c0-3.7-2.5-5.4-4.9-5.4c-2,0-4.6,1.3-5.1,4.9
		c-0.1,0.5-0.5,0.9-1,0.9l0,0c-0.5,0-0.9-0.4-1-0.9C22.5,13.5,20,12.3,18,12.3z"/>
	<path id="svg_5" class="st1" d="M2.7,47.7c-0.3,0-0.5-0.1-0.7-0.3c-0.3-0.3-0.4-0.8-0.2-1.2l4.8-10.3C2.4,31.9,0,26.7,0,21.2
		C0,9.5,10.8,0,24,0s24,9.5,24,21.2S37.2,42.4,24,42.4c-2.7,0-5.4-0.4-8-1.2L3.1,47.6C3,47.7,2.9,47.7,2.7,47.7z M24,2.1
		c-12.1,0-22,8.5-22,19.1c0,5.1,2.3,9.9,6.5,13.5c0.4,0.3,0.5,0.9,0.3,1.3l-3.9,8.3l10.6-5.3C15.7,39,16,39,16.2,39
		c2.5,0.8,5.1,1.2,7.8,1.2c12.1,0,22-8.5,22-19.1S36.1,2.1,24,2.1z"/>
</g>
</svg>
