<svg width="48" height="48" viewBox="0 0 48 48" fill="none" xmlns="http://www.w3.org/2000/svg">
<path d="M24 35.4C23.8 35.4 23.7 35.4 23.5 35.3C23 34.9 11 27.5 11 18.2C11 12.9 14.5 10.1 18 10.1C20.2 10.1 22.6 11.2 24 13.7C25.4 11.2 27.8 10 30.1 10C33.5 10 37 12.6 37 17.5C37 26.1 25.1 34.8 24.6 35.1C24.4 35.3 24.2 35.4 24 35.4ZM18 12.3C15.6 12.3 13 14.2 13 18.2C13 25.2 21.7 31.5 24 33C26.2 31.3 35 24.1 35 17.5C35 13.8 32.5 12.1 30.1 12.1C28.1 12.1 25.5 13.4 25 17C24.9 17.5 24.5 17.9 24 17.9C23.5 17.9 23.1 17.5 23 17C22.5 13.5 20 12.3 18 12.3Z" fill="#666666"/>
<path d="M2.7 47.7C2.4 47.7 2.2 47.6 2 47.4C1.7 47.1 1.6 46.6 1.8 46.2L6.6 35.9C2.4 31.9 0 26.7 0 21.2C0 9.5 10.8 0 24 0C37.2 0 48 9.5 48 21.2C48 32.9 37.2 42.4 24 42.4C21.3 42.4 18.6 42 16 41.2L3.1 47.6C3 47.7 2.9 47.7 2.7 47.7ZM24 2.1C11.9 2.1 2 10.6 2 21.2C2 26.3 4.3 31.1 8.5 34.7C8.9 35 9 35.6 8.8 36L4.9 44.3L15.5 39C15.7 39 16 39 16.2 39C18.7 39.8 21.3 40.2 24 40.2C36.1 40.2 46 31.7 46 21.1C46 10.5 36.1 2.1 24 2.1Z" fill="#666666"/>
</svg>
