<?xml version="1.0" encoding="utf-8"?>
<!-- Generator: Adobe Illustrator 19.2.1, SVG Export Plug-In . SVG Version: 6.00 Build 0)  -->
<svg version="1.1" id="Layer_1" xmlns="http://www.w3.org/2000/svg" xmlns:xlink="http://www.w3.org/1999/xlink" x="0px" y="0px"
	 viewBox="0 0 48 48" style="enable-background:new 0 0 48 48;" xml:space="preserve">
<style type="text/css">
	.st0{fill:none;}
	.st1{fill:#666666;}
</style>
<g>
	<title>background</title>
	<rect id="canvas_background" x="-1" y="-1" class="st0" width="582" height="402"/>
</g>
<g>
	<title>Layer 1</title>
	<path id="svg_3" class="st1" d="M41,38.2H7c-0.6,0-1-0.5-1-1.2V10c0-0.7,0.4-1.2,1-1.2h3v2.4H8v24.5h32v-4.9h2V37
		C42,37.7,41.6,38.2,41,38.2z"/>
	<path id="svg_5" class="st1" d="M47,28.4H13c-0.6,0-1-0.5-1-1.2V0.2C12-0.5,12.4-1,13-1h34c0.6,0,1,0.5,1,1.2v26.9
		C48,27.9,47.6,28.4,47,28.4z M14,26h32V1.5H14V26z"/>
	<path id="svg_7" class="st1" d="M35,48H1c-0.6,0-1-0.5-1-1.2v-27c0-0.7,0.4-1.2,1-1.2h3V21H2v24.5h32v-4.9h2v6.1
		C36,47.5,35.6,48,35,48z"/>
</g>
</svg>
