<?xml version="1.0" encoding="utf-8"?>
<!-- Generator: Adobe Illustrator 19.2.1, SVG Export Plug-In . SVG Version: 6.00 Build 0)  -->
<svg version="1.1" id="Layer_1" xmlns="http://www.w3.org/2000/svg" xmlns:xlink="http://www.w3.org/1999/xlink" x="0px" y="0px"
	 viewBox="0 0 48 48" style="enable-background:new 0 0 48 48;" xml:space="preserve">
<style type="text/css">
	.st0{fill:none;}
	.st1{fill:#666666;}
</style>
<g>
	<title>background</title>
	<rect id="canvas_background" x="-1" y="-1" class="st0" width="582" height="402"/>
</g>
<g>
	<title>Layer 1</title>
	<path id="svg_3" class="st1" d="M40.4,15.4H10.1c-2.8,0-5.1-1.8-5.1-4.1V5.2c0-2.2,2.3-4.1,5.1-4.1h30.3c2.8,0,5.1,1.8,5.1,4.1v6.1
		C45.5,13.6,43.2,15.4,40.4,15.4z M10.1,3.2c-1.4,0-2.5,0.9-2.5,2v6.1c0,1.1,1.1,2,2.5,2h30.3c1.4,0,2.5-0.9,2.5-2V5.2
		c0-1.1-1.1-2-2.5-2H10.1z"/>
	<rect id="svg_5" x="44.2" y="7.2" class="st1" width="3.8" height="2"/>
	<path id="svg_7" class="st1" d="M27.8,29.7h-2.5v-9.2c0-0.6-0.6-1-1.3-1H5.1C1.8,19.5,0,18,0,15.4v-4.1c0-2.6,1.8-4.1,5.1-4.1h1.3
		v2H5.1c-1.8,0-2.5,0.6-2.5,2v4.1c0,1.5,0.7,2,2.5,2H24c2.1,0,3.8,1.4,3.8,3.1V29.7z"/>
	<path id="svg_9" class="st1" d="M27.8,48h-2.5c-2.1,0-3.8-1.4-3.8-3.1V33.7c0-3.2,1.9-5.1,5.1-5.1s5.1,1.9,5.1,5.1v11.2
		C31.6,46.6,29.9,48,27.8,48z M26.5,30.7c-0.6,0-2.5,0-2.5,3.1v11.2c0,0.6,0.6,1,1.3,1h2.5c0.7,0,1.3-0.5,1.3-1V33.7
		C29.1,30.7,27.2,30.7,26.5,30.7z"/>
</g>
</svg>
