<?xml version="1.0" encoding="utf-8"?>
<!-- Generator: Adobe Illustrator 19.2.1, SVG Export Plug-In . SVG Version: 6.00 Build 0)  -->
<svg version="1.1" id="Layer_1" xmlns="http://www.w3.org/2000/svg" xmlns:xlink="http://www.w3.org/1999/xlink" x="0px" y="0px"
	 viewBox="0 0 95.4 62.8" style="enable-background:new 0 0 95.4 62.8;" xml:space="preserve">
<style type="text/css">
	.st0{fill:#666666;}
	.st1{fill:#FB8E9A;}
</style>
<g id="inst_1_">
	<path class="st0" d="M61.7,1v28h-28V1H61.7 M62.7,0h-30v30h30V0L62.7,0z"/>
	<path class="st0" d="M61.7,1v28h-28V1H61.7 M62.7,0h-30v30h30V0L62.7,0z"/>
	<path id="inst" class="st0" d="M54.2,6.3H41.1c-1.2,0-2.2,1-2.2,2.2v13.1c0,1.2,1,2.2,2.2,2.2h13.1c1.2,0,2.2-1,2.2-2.2V8.4
		C56.4,7.2,55.5,6.3,54.2,6.3z M47.7,11.6c1.9,0,3.5,1.5,3.5,3.4c0,1.9-1.6,3.4-3.5,3.4c-1.9,0-3.5-1.5-3.5-3.4
		C44.2,13.1,45.7,11.6,47.7,11.6z M54.2,21c0,0.4-0.2,0.5-0.5,0.5h-12c-0.4,0-0.5-0.2-0.5-0.5v-7.7l1.4,0.3c-0.1,0.5-0.2,1-0.2,1.5
		c0,2.9,2.4,5.3,5.4,5.3c3,0,5.4-2.4,5.4-5.3c0-0.5-0.1-1-0.2-1.5l1.3-0.3L54.2,21L54.2,21z M54.2,11.2c0,0.3-0.2,0.5-0.5,0.5h-2.2
		c-0.3,0-0.5-0.2-0.5-0.5V9c0-0.3,0.2-0.5,0.5-0.5h2.2c0.3,0,0.5,0.2,0.5,0.5V11.2z"/>
</g>
<g id="pint">
	<g>
		<path class="st0" d="M94.4,1v28h-28V1H94.4 M95.4,0h-30v30h30V0L95.4,0z"/>
		<path class="st0" d="M94.4,1v28h-28V1H94.4 M95.4,0h-30v30h30V0L95.4,0z"/>
	</g>
	<path class="st0" d="M87.5,11.8c0,4.2-2.3,7.3-5.7,7.3c-1.1,0-2.2-0.6-2.6-1.3c0,0-0.6,2.5-0.7,2.9c-0.5,1.7-1.8,3.3-1.9,3.5
		c-0.1,0.1-0.2,0.1-0.3-0.1c0-0.2-0.4-2.3,0-4c0.2-0.9,1.4-5.8,1.4-5.8s-0.3-0.7-0.3-1.7c0-1.6,0.9-2.8,2.1-2.8c1,0,1.4,0.7,1.4,1.6
		c0,1-0.6,2.4-0.9,3.8c-0.3,1.1,0.6,2,1.7,2c2,0,3.4-2.6,3.4-5.7c0-2.3-1.6-4.1-4.4-4.1c-3.2,0-5.2,2.4-5.2,5.1
		c0,0.9,0.3,1.6,0.7,2.1c0.2,0.2,0.2,0.3,0.2,0.6c-0.1,0.2-0.2,0.7-0.2,0.9c-0.1,0.3-0.3,0.4-0.5,0.3c-1.5-0.6-2.2-2.2-2.2-4.1
		c0-3,2.5-6.6,7.6-6.6C84.9,5.7,87.5,8.6,87.5,11.8z"/>
</g>
<g id="fb">
	<g>
		<path class="st0" d="M29,1v28H1V1H29 M30,0H0v30h30V0L30,0z"/>
		<path class="st0" d="M29,1v28H1V1H29 M30,0H0v30h30V0L30,0z"/>
	</g>
	<path class="st0" d="M12.9,23.1h3.4V15h2.2l0.3-2.8h-2.5l0-1.4c0-0.7,0.1-1.1,1.1-1.1h1.4V6.9h-2.2c-2.7,0-3.6,1.4-3.6,3.6v1.7
		h-1.7V15h1.7C12.9,15,12.9,23.1,12.9,23.1z"/>
</g>
<g id="fb_1_">
	<g>
		<path class="st1" d="M29,33.8v28H1v-28H29 M30,32.8H0v30h30V32.8L30,32.8z"/>
		<path class="st1" d="M29,33.8v28H1v-28H29 M30,32.8H0v30h30V32.8L30,32.8z"/>
	</g>
	<path class="st1" d="M12.9,56h3.4v-8.1h2.2l0.3-2.8h-2.5l0-1.4c0-0.7,0.1-1.1,1.1-1.1h1.4v-2.8h-2.2c-2.7,0-3.6,1.4-3.6,3.6V45
		h-1.7v2.8h1.7C12.9,47.8,12.9,56,12.9,56z"/>
</g>
<g id="inst_2_">
	<path class="st1" d="M61.7,33.8v28h-28v-28H61.7 M62.7,32.8h-30v30h30V32.8L62.7,32.8z"/>
	<path class="st1" d="M61.7,33.8v28h-28v-28H61.7 M62.7,32.8h-30v30h30V32.8L62.7,32.8z"/>
	<path id="inst_3_" class="st1" d="M54.2,39.1H41.1c-1.2,0-2.2,1-2.2,2.2v13.1c0,1.2,1,2.2,2.2,2.2h13.1c1.2,0,2.2-1,2.2-2.2V41.3
		C56.4,40,55.5,39.1,54.2,39.1z M47.7,44.4c1.9,0,3.5,1.5,3.5,3.4c0,1.9-1.6,3.4-3.5,3.4c-1.9,0-3.5-1.5-3.5-3.4
		C44.2,45.9,45.7,44.4,47.7,44.4z M54.2,53.8c0,0.4-0.2,0.5-0.5,0.5h-12c-0.4,0-0.5-0.2-0.5-0.5v-7.7l1.4,0.3
		c-0.1,0.5-0.2,1-0.2,1.5c0,2.9,2.4,5.3,5.4,5.3c3,0,5.4-2.4,5.4-5.3c0-0.5-0.1-1-0.2-1.5l1.3-0.3L54.2,53.8L54.2,53.8z M54.2,44
		c0,0.3-0.2,0.5-0.5,0.5h-2.2c-0.3,0-0.5-0.2-0.5-0.5v-2.2c0-0.3,0.2-0.5,0.5-0.5h2.2c0.3,0,0.5,0.2,0.5,0.5V44z"/>
</g>
<g id="pint_1_">
	<g>
		<path class="st1" d="M94.4,33.8v28h-28v-28H94.4 M95.4,32.8h-30v30h30V32.8L95.4,32.8z"/>
		<path class="st1" d="M94.4,33.8v28h-28v-28H94.4 M95.4,32.8h-30v30h30V32.8L95.4,32.8z"/>
	</g>
	<path class="st1" d="M87.5,44.6c0,4.2-2.3,7.3-5.7,7.3c-1.1,0-2.2-0.6-2.6-1.3c0,0-0.6,2.5-0.7,2.9c-0.5,1.7-1.8,3.3-1.9,3.5
		c-0.1,0.1-0.2,0.1-0.3-0.1c0-0.2-0.4-2.3,0-4c0.2-0.9,1.4-5.8,1.4-5.8s-0.3-0.7-0.3-1.7c0-1.6,0.9-2.8,2.1-2.8c1,0,1.4,0.7,1.4,1.6
		c0,1-0.6,2.4-0.9,3.8c-0.3,1.1,0.6,2,1.7,2c2,0,3.4-2.6,3.4-5.7c0-2.3-1.6-4.1-4.4-4.1c-3.2,0-5.2,2.4-5.2,5.1
		c0,0.9,0.3,1.6,0.7,2.1c0.2,0.2,0.2,0.3,0.2,0.6c-0.1,0.2-0.2,0.7-0.2,0.9c-0.1,0.3-0.3,0.4-0.5,0.3c-1.5-0.6-2.2-2.2-2.2-4.1
		c0-3,2.5-6.6,7.6-6.6C84.9,38.5,87.5,41.5,87.5,44.6z"/>
</g>
</svg>
