<svg width="64" height="64" xmlns="http://www.w3.org/2000/svg">

 <g>
  <title>background</title>
  <rect fill="none" id="canvas_background" height="402" width="582" y="-1" x="-1"/>
 </g>
 <g>
  <title>Layer 1</title>
  <rect id="svg_1" y="35" x="6" width="52" height="16" fill="#212121"/>
  <path id="svg_2" fill="#fc8f9b" d="m7.8556,56l-3,0l0,-4l4,0l-1,4zm48,0l3,0l0,-4l-4,0l1,4z"/>
  <path id="svg_3" fill="#00bab1" d="m22.7,19.4c-5.6,0.8 -11.6,1.2 -17.9,1c-0.8,0 -1.3,0.8 -0.9,1.5c2.6,4.4 4.1,9.6 4.1,15.1l0,2.8l14.7,0l0,-20.4z"/>
  <path id="svg_4" fill="#00bab1" d="m41.444403,19.4c5.6,0.8 11.6,1.2 17.9,1c0.8,0 1.3,0.8 0.9,1.5c-2.6,4.4 -4.1,9.6 -4.1,15.1l0,2.8l-14.7,0l0,-20.4z"/>
  <path id="svg_5" fill="#056d68" d="m43,38l-22,0c1.1,-7.7 1.3,-15.3 0.2,-22.7c-0.1,-0.7 0.4,-1.2 1.1,-1.1c6.4,0.8 12.8,0.8 19.4,0c0.7,-0.1 1.2,0.5 1.1,1.1c-1.2,8.1 -1,15.7 0.2,22.7z"/>
  <path id="svg_6" fill="#00bab1" d="m55,53l-46,0c-0.6,0 -1,-0.4 -1,-1l0,-7c0,-0.6 0.4,-1 1,-1l46,0c0.6,0 1,0.4 1,1l0,7c0,0.6 -0.4,1 -1,1z"/>
  <path id="svg_7" fill="#056d68" d="m31,44l-22,0c-0.6,0 -1,-0.4 -1,-1l0,-5l24,0l0,5c0,0.6 -0.4,1 -1,1z"/>
  <path id="svg_8" fill="#0d968f" d="m15,36c-2.6,0 -4.9,0.7 -7,2l24,0c-2.1,-1.3 -4.4,-2 -7,-2l-10,0z"/>
  <path id="svg_9" fill="#056d68" d="m33,44l22,0c0.6,0 1,-0.4 1,-1l0,-5l-24,0l0,5c0,0.6 0.4,1 1,1z"/>
  <path id="svg_10" fill="#0d968f" d="m49,36c2.6,0 4.9,0.7 7,2l-24,0c2.1,-1.3 4.4,-2 7,-2l10,0z"/>
  <path id="svg_11" fill="#0d968f" d="m7,29.7c-1.5,-2.3 -5.2,-1.1 -5,1.6c0.1,0.7 0.4,1.3 0.8,1.7c0.7,0.8 1.2,1.8 1.2,2.9c0,3.9 0,13.2 0,16.1c0,0.6 0.4,1 1,1l2,0c0.6,0 1,-0.4 1,-1l0,-19c0,-1 -0.3,-2.3 -1,-3.3z"/>
  <path id="svg_12" fill="#0d968f" d="m57,29.7c1.5,-2.3 5.2,-1.1 5,1.6c-0.1,0.7 -0.4,1.3 -0.8,1.8c-0.7,0.8 -1.2,1.8 -1.2,2.8c0,3.9 0,13.3 0,16.1c0,0.6 -0.4,1 -1,1l-2,0c-0.6,0 -1,-0.4 -1,-1l0,-19c0,-1 0.3,-2.3 1,-3.3z"/>
 </g>
</svg>