<svg id="Layer_1" xmlns="http://www.w3.org/2000/svg" viewBox="0 0 787.1 275.4"><style>.st0{fill:#818383}</style><path class="st0" d="M740 85.7c11.5-1.3 17.9-7.2 17.9-17.2 0-10.8-6.6-17.5-20.1-17.5h-23.2v63.1h4.9V86h14.9l19.7 28.1h6.3L740 85.7zm-20.5-4.2V55.6h14.9c11.5 0 18.6 2.4 18.6 12.8 0 9.1-6.3 13.1-18.2 13.1h-15.3z"/><path class="st0" d="M681.6 83.5c0 29.1 23.5 51.9 53.3 51.9 28.9 0 50.9-22.8 50.9-52.5 0-28.3-22.9-50.8-51.8-50.8-29.1 0-52.4 22.6-52.4 51.4zm52.7-46.9c26.7 0 46.4 20.5 46.4 47.6 0 25.9-20.4 46.7-46.2 46.7-26.5 0-47.6-21.1-47.6-47.1.1-26.5 20.6-47.2 47.4-47.2zM100 141.2c-7.1-6.7-18.2-11.9-34.3-16.6l-15.2-4.4c-23.1-6.5-31.4-15.6-31.4-29.7 0-8.5 3.7-15.4 10.2-20.2C35.8 65.5 45 63 56 63c20.2 0 34.9 10.3 41 31.1l10-4.1c-7.7-23.1-24-36.2-49.6-36.2C43 53.7 30.6 57.5 21.9 64 13.2 70.6 8.2 79.8 8.2 90.9c0 18.3 11.1 30.9 37.7 39.4l17.1 5.3c13.1 4.1 22.1 7.9 28 12.9s8.4 11.2 8.4 19.6c0 10.2-4.3 18.2-11.5 23.5s-17.3 8.1-29.1 8.1c-26.1 0-41.4-15.8-47.5-36.1l-10 4.1c8.5 25.5 27.3 41.6 56.2 41.7 32.7-.1 52.7-16.2 52.7-41.8-.1-11.4-3.2-19.7-10.2-26.4zm71.2 52.5c-3.4-3.6-5.1-9.5-5.1-18.8V66.5h33v-9.6h-33V.9h-10.5v56h-29.5v9.6h29.5v106.9c0 13.3 2 22 6.5 27.2 4.4 5.3 11.4 7.4 21.9 7.4 4.1 0 9.7-.9 15.4-2.3v-10c-5.4 2.2-9.7 2.7-14.1 2.7-5.8 0-10.7-1.1-14.1-4.7zM240 131c0-25.2 2.8-40.2 17-54.4 7-7 15.9-10.5 25.8-10.5 4.7 0 10.2.8 15.4 3.5V57c-5-1.4-9.4-2-14.7-2-17.2 0-31.4 7.2-41.9 27.9l-1.5 3v-29h-10.5v148.9H240V131zm87.3-74.1h10.5v148.9h-10.5zm166.1 53c0-21.1-3.4-32.3-10.4-40.9-8.5-10.3-20.3-14.3-36.1-14.3-21.2 0-40.5 10.4-51.2 31.6l-1.5 3V56.9h-10.5v148.9h10.5v-78.2c0-14.7 1.9-29.5 12.9-44.3 10.1-13.3 25.6-18.7 38-18.7h.1c12.8 0 22.1 2.5 28.8 10.6 6.7 8.3 8.9 18.8 8.9 38.1v92.5h10.5v-95.9zm157.4-53h-10.5v27.8l-1.5-3.3c-8.3-18.1-23.7-26.6-45.6-26.6-39 .1-61.9 28-62 76.6.1 48 22.1 76.9 58.3 77 24 0 39.5-10.7 49.4-29.4l1.5-2.9V205c0 16.2-1.5 29.4-5.7 38.3-7.6 15.9-22.4 20.7-41.8 20.7-24.2.1-38.4-11.6-44.4-34.3l-11.8 3.6c7 26.5 26.9 40.3 55.6 40.3 22 0 44-6.8 52.8-26.9 4-8.8 5.8-21.8 5.8-37l-.1-152.8zm-24.5 124.8c-8.5 11.3-20.7 17-35 17-15.6 0-28.1-7.1-36.5-19.5s-12.8-30-12.8-51.3c0-19.9 4.8-35.8 13.5-46.9 8.7-11 21.3-17.1 36.8-17.1 15.1 0 27.1 6.1 35.2 17.6 8.1 11.4 12.3 28.1 12.3 49.2-.2 22.7-5 39.6-13.5 51z"/></svg>