<svg width="94" height="45" fill="none" xmlns="http://www.w3.org/2000/svg"><path d="M93.65 10.53c-.16-.08-.46-.56-.58-.66V9.8l.06-.06.14-.06.13-.06s.2-.05.2-.09c0-.04-.06 0-.06 0a.25.25 0 0 0-.1-.06h-.36s-1.37-.09-1.61-.15A10.63 10.63 0 0 1 88 8.31l-1.58-.85L85 6.71a3.13 3.13 0 0 0-1-.39 4 4 0 0 1-1.19-.52 7.176 7.176 0 0 1-1-.88 2.74 2.74 0 0 0-1.52-.67 3.53 3.53 0 0 0-1.66.1 1.87 1.87 0 0 0-.86.82.29.29 0 0 0 0 .23l-.49.33-.18.16a.16.16 0 0 0-.07.09v.06l.32.12c.078.033.158.06.24.08.113.017.227.017.34 0l.12.44a3.18 3.18 0 0 0 .08.89 4.18 4.18 0 0 0 1.45 2.64c.308.268.643.502 1 .7.715.321 1.462.563 2.23.72H83l-.12.05-.25.15-.23.1-.22.06h-.21l-.19.01-.22-.11h-.37c.084.04.164.086.24.14a.57.57 0 0 1-.35 0 .53.53 0 0 0-.4 0c-.4 0-.82-.08-1.27-.1a5.62 5.62 0 0 0-2.71.63 12.78 12.78 0 0 0-2.11 1.4h-.33a11.114 11.114 0 0 0-2.46-1.4 8.869 8.869 0 0 0-3.51-.63 3.54 3.54 0 0 0-3.42 2l-.41-.07v-1.7h-6.75v1.21c1.94.4 2.91.967 2.91 1.7V35h3.84V19.12c-.001-.731.035-1.462.11-2.19a5.58 5.58 0 0 1 .49-1.84 3.14 3.14 0 0 1 1.15-1.29 4.59 4.59 0 0 1 4.44.17A4.06 4.06 0 0 1 72 15.64a7.32 7.32 0 0 1 .55 2.3c.073.86.11 1.71.11 2.55V35h3.14V17.86c-.003-.622.034-1.243.11-1.86a3.75 3.75 0 0 1 .46-1.45 2.2 2.2 0 0 1 1.06-.9c.64-.23 1.32-.333 2-.3a3.82 3.82 0 0 1 2.35.66 4.08 4.08 0 0 1 1.31 1.67 7.3 7.3 0 0 1 .55 2.3c.073.86.11 1.71.11 2.55V35h3.65V20.53a16.43 16.43 0 0 0-.4-3.78 6.161 6.161 0 0 0-1.29-2.63 5.13 5.13 0 0 0-1.78-1.29h.14l.53.05h.14v-.12s0-.24.38 0l.15.15a.41.41 0 0 0-.36-.39.462.462 0 0 0-.36.08H84l-.21-.07v-.09s0-.18.15-.13l.23.1-.17-.23.52-.48s1.5-.1 1.91-.77A1.93 1.93 0 0 1 87 11c.23.08 1 .06 1.31.14.268.047.538.077.81.09 0 0 .28-.05 0-.23a1.623 1.623 0 0 0-.37-.31L88 10.3l.34-.05.68-.09a2.78 2.78 0 0 1 1.36 0l.77.19s1 .13 1.59.27l.8.2c.05.006.1.006.15 0v-.07a.2.2 0 0 0-.11-.24l.07.02zm-68.51 2.13h.05c2.593.04 3.89 2.647 3.89 7.82v.32l-.27.26h-7.35l-.27-.26c.033-5.42 1.347-8.133 3.94-8.14h.01zm8.15 9.58c0-7.02-2.59-10.53-7.77-10.53-2.98 0-5.163 1-6.55 3-1.387 2-2.077 4.983-2.07 8.95 0 3.613.667 6.37 2 8.27 1.333 1.9 3.47 2.863 6.41 2.89h.21a9.71 9.71 0 0 0 4.85-1 6.48 6.48 0 0 0 2.71-3l-1.07-.8c-1.42 2.293-2.967 3.473-4.64 3.54h-.11c-4.193 0-6.29-3.667-6.29-11l.27-.27 12.05-.05zm21.06-8.45A4.32 4.32 0 0 0 53 12.53a4.9 4.9 0 0 0-1.56-.6 7.63 7.63 0 0 0-1.44-.18h-.16a4.6 4.6 0 0 0-4.22 2.44l-.51-.19v-1.84H38.4v1.21c2 .4 3 .967 3 1.7V35h3.76V21.54a22.115 22.115 0 0 1 .33-4.25c.15-.883.448-1.735.88-2.52a2.84 2.84 0 0 1 1.26-1.21 3.77 3.77 0 0 1 3.02.03l.11.17v.45c0 .35-.25.91-.25 1.54a2.18 2.18 0 0 0 .49 1.52 1.86 1.86 0 0 0 1.45.61 2.291 2.291 0 0 0 1.72-.72 2.61 2.61 0 0 0 .72-1.78 4 4 0 0 0-.57-1.64l.03.05zM3.07 8.35v3.46l-.27.27H0v1.26c2.047.4 3.07.84 3.07 1.32V35h3.84V14.69c0-.473 1.153-.913 3.46-1.32V12.1H7.18l-.27-.27v-1.7c.06-5.827 1.87-8.797 5.43-8.91V0C6.16 0 3.07 2.783 3.07 8.35zm14.04 32.78h.49v3.3h1.58v.4h-2.07v-3.7zm11.29 0h-.48v3.69h.48v-3.69zm9.87 3.7l-1.21-3.69h.52l.57 1.86c.15.5.29 1 .39 1.38a14 14 0 0 1 .42-1.38l.63-1.82h.51l-1.32 3.69-.51-.04zm10.94-3.7h-.48v3.69h.48v-3.69zm9.05 3.7v-3.7h.53L60 43c.247.384.468.785.66 1.2 0-.49-.05-.94-.05-1.51v-1.56H61v3.69h-.48L59.38 43a10.603 10.603 0 0 1-.68-1.23v3.1l-.44-.04zm14.65-.17a3.34 3.34 0 0 1-1.14.2 1.729 1.729 0 0 1-1.9-1.86 1.851 1.851 0 0 1 2-1.91c.318-.008.635.05.93.17l-.12.39a1.83 1.83 0 0 0-.82-.16A1.38 1.38 0 0 0 70.38 43a1.35 1.35 0 0 0 1.42 1.49c.218.011.436-.023.64-.1v-1.1h-.75v-.38h1.22v1.75z" fill="#6F6F6F"/></svg>