<svg width="120" height="23" fill="none" xmlns="http://www.w3.org/2000/svg"><path fill-rule="evenodd" clip-rule="evenodd" d="M108.568 17.295c-1.707 0-4.326-1.122-4.326-5.946s2.619-5.946 4.326-5.946c1.706 0 4.325 1.122 4.325 5.946s-2.619 5.946-4.325 5.946zm0-17.292c-6.614 0-11.03 4.731-11.03 11.346s4.416 11.346 11.03 11.346c6.614 0 11.034-4.73 11.034-11.346 0-6.615-4.42-11.346-11.034-11.346zm-54.39.414h-5.317a.709.709 0 0 0-.71.704v11.15c0 2.224 0 5.002-3.186 5.002-3.271 0-3.271-2.778-3.271-5.002V1.121a.709.709 0 0 0-.711-.704h-5.318a.706.706 0 0 0-.706.704v12.643c0 6.037 3.304 8.932 9.977 8.932 6.676 0 9.948-2.895 9.948-8.932V1.12a.706.706 0 0 0-.706-.704z" fill="#6E6E6E"/><mask id="a" maskUnits="userSpaceOnUse" x="0" y="0" width="77" height="23"><path d="M38.307 0H0v22.695h76.614V0H38.307z" fill="#fff"/></mask><g mask="url(#a)" fill-rule="evenodd" clip-rule="evenodd" fill="#6E6E6E"><path d="M75.906.417h-5.317a.707.707 0 0 0-.71.704v11.15c0 2.224 0 5.002-3.182 5.002-3.278 0-3.278-2.778-3.278-5.002V1.121a.706.706 0 0 0-.708-.704h-5.315a.708.708 0 0 0-.71.704v12.643c0 6.037 3.31 8.932 9.979 8.932 6.672 0 9.95-2.895 9.95-8.932V1.12a.707.707 0 0 0-.709-.704zM23.133 0c-2.788 0-4.982.505-6.591 1.535C14.924.505 12.724 0 9.937 0 3.265 0-.01 2.895-.01 8.93v12.64c0 .392.316.709.706.709h5.32c.39 0 .705-.317.705-.708V10.424c0-2.227 0-4.998 3.186-4.998 3.275 0 3.275 2.771 3.275 4.998V21.57c0 .39.32.708.709.708h5.318c.39 0 .707-.317.707-.708V10.424c0-2.227 0-4.998 3.184-4.998 3.278 0 3.278 2.771 3.278 4.998V21.57c0 .39.315.708.705.708h5.318a.707.707 0 0 0 .708-.708V8.93c0-6.035-3.304-8.93-9.976-8.93z"/></g><path fill-rule="evenodd" clip-rule="evenodd" d="M96.433.417H78.87a.706.706 0 0 0-.708.704v4.167c0 .391.316.704.708.704h5.413V21.58c0 .388.316.704.709.704h5.314a.709.709 0 0 0 .712-.704V5.992h5.415c.39 0 .705-.313.705-.704V1.121a.705.705 0 0 0-.705-.704z" fill="#6E6E6E"/></svg>