<svg width="60" height="39" fill="none" xmlns="http://www.w3.org/2000/svg"><path d="M55.993 19.413H4.007v14.923h51.986V19.413z" fill="#212121"/><path d="M5.862 39h-3v-3.731h4l-1 3.731zm47.987 0h3v-3.731h-4l1 3.731z" fill="#FC8F9B"/><path d="M20.703 4.862a110.688 110.688 0 0 1-17.896.933c-.8 0-1.3.746-.9 1.4a26.294 26.294 0 0 1 4.1 14.083v2.612h14.696V4.862zm18.739 0c5.598.746 11.597 1.12 17.895.933.8 0 1.3.746.9 1.4a26.294 26.294 0 0 0-4.099 14.083v2.612H39.442V4.862z" fill="#00BAB1"/><path d="M40.997 22.21H19.003c1.1-7.181 1.3-14.27.2-21.172-.1-.653.4-1.12 1.1-1.026 6.398.746 12.796.746 19.395 0 .7-.093 1.2.466 1.1 1.026-1.2 7.555-1 14.644.2 21.173z" fill="#056D68"/><path d="M52.994 36.202H7.006c-.6 0-1-.373-1-.933v-6.53c0-.559.4-.932 1-.932h45.988c.6 0 1 .373 1 .933v6.529c0 .56-.4.933-1 .933z" fill="#00BAB1"/><path d="M29 27.807H7.006c-.6 0-1-.373-1-.933V22.21H30v4.664c0 .56-.4.933-1 .933z" fill="#056D68"/><path d="M13.005 20.345c-2.6 0-4.9.653-6.999 1.866H30c-2.1-1.213-4.399-1.866-6.998-1.866h-9.997z" fill="#0D968F"/><path d="M31 27.807h21.994c.6 0 1-.373 1-.933V22.21H30v4.664c0 .56.4.933 1 .933z" fill="#056D68"/><path d="M46.996 20.345c2.599 0 4.898.653 6.998 1.866H30c2.1-1.213 4.399-1.866 6.998-1.866h9.998zm-41.99-5.876c-1.5-2.145-5.198-1.026-4.998 1.492.1.653.4 1.213.8 1.586.7.746 1.2 1.679 1.2 2.705v15.017c0 .56.4.933.999.933h2c.6 0 1-.373 1-.933V17.547c0-.933-.3-2.145-1-3.078z" fill="#0D968F"/><path d="M54.993 14.469c1.5-2.145 5.199-1.026 5 1.492-.1.653-.4 1.213-.8 1.68-.7.746-1.2 1.678-1.2 2.611v15.017c0 .56-.4.933-1 .933h-2c-.6 0-1-.373-1-.933V17.547c0-.933.3-2.145 1-3.078z" fill="#0D968F"/></svg>