<svg id="Layer_1" xmlns="http://www.w3.org/2000/svg" viewBox="0 0 48 48"><style>.st0{fill:none}.st1{fill:#666}</style><title>background</title><path id="canvas_background" class="st0" d="M-1-1h582v402H-1z"/><title>Layer 1</title><path id="svg_3" class="st1" d="M41 38.2H7c-.6 0-1-.5-1-1.2V10c0-.7.4-1.2 1-1.2h3v2.4H8v24.5h32v-4.9h2V37c0 .7-.4 1.2-1 1.2z"/><path id="svg_5" class="st1" d="M47 28.4H13c-.6 0-1-.5-1-1.2V.2c0-.7.4-1.2 1-1.2h34c.6 0 1 .5 1 1.2v26.9c0 .8-.4 1.3-1 1.3zM14 26h32V1.5H14V26z"/><path id="svg_7" class="st1" d="M35 48H1c-.6 0-1-.5-1-1.2v-27c0-.7.4-1.2 1-1.2h3V21H2v24.5h32v-4.9h2v6.1c0 .8-.4 1.3-1 1.3z"/></svg>