<svg id="Layer_1" xmlns="http://www.w3.org/2000/svg" viewBox="0 0 48 48"><style>.st0{fill:none}.st1{fill:#666}</style><title>background</title><path id="canvas_background" class="st0" d="M-1-1h582v402H-1z"/><title>Layer 1</title><path id="svg_3" class="st1" d="M40.4 15.4H10.1c-2.8 0-5.1-1.8-5.1-4.1V5.2C5 3 7.3 1.1 10.1 1.1h30.3c2.8 0 5.1 1.8 5.1 4.1v6.1c0 2.3-2.3 4.1-5.1 4.1zM10.1 3.2c-1.4 0-2.5.9-2.5 2v6.1c0 1.1 1.1 2 2.5 2h30.3c1.4 0 2.5-.9 2.5-2V5.2c0-1.1-1.1-2-2.5-2H10.1z"/><path id="svg_5" class="st1" d="M44.2 7.2H48v2h-3.8z"/><path id="svg_7" class="st1" d="M27.8 29.7h-2.5v-9.2c0-.6-.6-1-1.3-1H5.1C1.8 19.5 0 18 0 15.4v-4.1c0-2.6 1.8-4.1 5.1-4.1h1.3v2H5.1c-1.8 0-2.5.6-2.5 2v4.1c0 1.5.7 2 2.5 2H24c2.1 0 3.8 1.4 3.8 3.1v9.3z"/><path id="svg_9" class="st1" d="M27.8 48h-2.5c-2.1 0-3.8-1.4-3.8-3.1V33.7c0-3.2 1.9-5.1 5.1-5.1s5.1 1.9 5.1 5.1v11.2c-.1 1.7-1.8 3.1-3.9 3.1zm-1.3-17.3c-.6 0-2.5 0-2.5 3.1V45c0 .6.6 1 1.3 1h2.5c.7 0 1.3-.5 1.3-1V33.7c0-3-1.9-3-2.6-3z"/></svg>