<svg width="293" height="376" fill="none" xmlns="http://www.w3.org/2000/svg"><path fill="#000" fill-opacity="0" d="M0 0h292.336v375.423H0z"/><path fill="#000" fill-opacity="0" d="M0 0h292.336v375.423H0z"/><path d="M124 0C55.5 0 0 55.5 0 124s55.5 124 124 124 124-55.5 124-124S192.5 0 124 0zm0 214.6c-50 0-90.6-40.6-90.6-90.6 0-50 40.6-90.6 90.6-90.6 50 0 90.6 40.6 90.6 90.6 0 50-40.6 90.6-90.6 90.6z" fill="#fff"/><path d="M288.8 345.6c6.1 9.2 4.1 21.3-4.4 26.9-8.5 5.7-20.5 2.8-26.6-6.4L169.2 233c-6.1-9.2-4.1-21.3 4.4-26.9 8.5-5.7 20.5-2.8 26.6 6.4l88.6 133.1z" fill="#fff"/></svg>