<svg width="48" height="48" fill="none" xmlns="http://www.w3.org/2000/svg"><path d="M24 35.4c-.2 0-.3 0-.5-.1C23 34.9 11 27.5 11 18.2c0-5.3 3.5-8.1 7-8.1 2.2 0 4.6 1.1 6 3.6 1.4-2.5 3.8-3.7 6.1-3.7 3.4 0 6.9 2.6 6.9 7.5 0 8.6-11.9 17.3-12.4 17.6-.2.2-.4.3-.6.3zm-6-23.1c-2.4 0-5 1.9-5 5.9 0 7 8.7 13.3 11 14.8 2.2-1.7 11-8.9 11-15.5 0-3.7-2.5-5.4-4.9-5.4-2 0-4.6 1.3-5.1 4.9-.1.5-.5.9-1 .9s-.9-.4-1-.9c-.5-3.5-3-4.7-5-4.7z" fill="#666"/><path d="M2.7 47.7c-.3 0-.5-.1-.7-.3-.3-.3-.4-.8-.2-1.2l4.8-10.3C2.4 31.9 0 26.7 0 21.2 0 9.5 10.8 0 24 0s24 9.5 24 21.2-10.8 21.2-24 21.2c-2.7 0-5.4-.4-8-1.2L3.1 47.6c-.1.1-.2.1-.4.1zM24 2.1c-12.1 0-22 8.5-22 19.1 0 5.1 2.3 9.9 6.5 13.5.4.3.5.9.3 1.3l-3.9 8.3L15.5 39h.7c2.5.8 5.1 1.2 7.8 1.2 12.1 0 22-8.5 22-19.1 0-10.6-9.9-19-22-19z" fill="#666"/></svg>