<svg width="293" height="376" viewBox="0 0 293 376" fill="none" xmlns="http://www.w3.org/2000/svg">
<rect width="292.336" height="375.423" fill="black" fill-opacity="0"/>
<rect width="292.336" height="375.423" fill="black" fill-opacity="0"/>
<path d="M124 0C55.5 0 0 55.5 0 124C0 192.5 55.5 248 124 248C192.5 248 248 192.5 248 124C248 55.5 192.5 0 124 0ZM124 214.6C74 214.6 33.4 174 33.4 124C33.4 74 74 33.4 124 33.4C174 33.4 214.6 74 214.6 124C214.6 174 174 214.6 124 214.6Z" fill="white"/>
<path d="M288.8 345.6C294.9 354.8 292.9 366.9 284.4 372.5C275.9 378.2 263.9 375.3 257.8 366.1L169.2 233C163.1 223.8 165.1 211.7 173.6 206.1C182.1 200.4 194.1 203.3 200.2 212.5L288.8 345.6Z" fill="white"/>
</svg>
