<svg id="Layer_1" xmlns="http://www.w3.org/2000/svg" viewBox="0 0 48 48"><style>.st0{fill:none}.st1{fill:#666}</style><title>background</title><path id="canvas_background" class="st0" d="M-1-1h582v402H-1z"/><title>Layer 1</title><path id="svg_3" class="st1" d="M24.5 48c-.2 0-.3 0-.5-.1L1.6 37.7c-.4-.1-.6-.5-.6-.9V5.1c0-.4.2-.7.5-.9.3-.2.7-.2 1-.1l22 10 22-10c.3-.1.7-.1 1 .1.3.3.5.6.5.9v31.7c0 .4-.2.8-.6.9L25 47.9c-.2.1-.3.1-.5.1zM3.1 36.2l21.4 9.7 21.4-9.7V6.8L25 16.3c-.3.1-.6.1-.9 0l-21-9.5v29.4z"/><path id="svg_5" class="st1" d="M24.5 11.4L5.9 2.9c-.6-.2-.8-.8-.5-1.3.3-.5.9-.7 1.4-.5l17.7 8.1 17.7-8.1c.5-.2 1.2 0 1.4.5.3.5 0 1.1-.5 1.4 0-.1-18.6 8.4-18.6 8.4z"/><path id="svg_7" class="st1" d="M23.4 15.4h2.1v31.7h-2.1z"/></svg>