<?xml version="1.0" encoding="utf-8"?>
<!-- Generator: Adobe Illustrator 19.2.1, SVG Export Plug-In . SVG Version: 6.00 Build 0)  -->
<svg version="1.1" id="Layer_1" xmlns="http://www.w3.org/2000/svg" xmlns:xlink="http://www.w3.org/1999/xlink" x="0px" y="0px"
	 viewBox="0 0 48 48" style="enable-background:new 0 0 48 48;" xml:space="preserve">
<style type="text/css">
	.st0{fill:none;}
	.st1{fill:#666666;}
</style>
<g>
	<title>background</title>
	<rect id="canvas_background" x="-1" y="-1" class="st0" width="582" height="402"/>
</g>
<g>
	<title>Layer 1</title>
	<path id="svg_3" class="st1" d="M24.5,48c-0.2,0-0.3,0-0.5-0.1L1.6,37.7C1.2,37.6,1,37.2,1,36.8V5.1c0-0.4,0.2-0.7,0.5-0.9
		c0.3-0.2,0.7-0.2,1-0.1l22,10l22-10c0.3-0.1,0.7-0.1,1,0.1C47.8,4.5,48,4.8,48,5.1v31.7c0,0.4-0.2,0.8-0.6,0.9L25,47.9
		C24.8,48,24.7,48,24.5,48z M3.1,36.2l21.4,9.7l21.4-9.7V6.8L25,16.3c-0.3,0.1-0.6,0.1-0.9,0L3.1,6.8C3.1,6.8,3.1,36.2,3.1,36.2z"/>
	<path id="svg_5" class="st1" d="M24.5,11.4L5.9,2.9C5.3,2.7,5.1,2.1,5.4,1.6c0.3-0.5,0.9-0.7,1.4-0.5l17.7,8.1l17.7-8.1
		c0.5-0.2,1.2,0,1.4,0.5c0.3,0.5,0,1.1-0.5,1.4C43.1,2.9,24.5,11.4,24.5,11.4z"/>
	<rect id="svg_7" x="23.4" y="15.4" class="st1" width="2.1" height="31.7"/>
</g>
</svg>
