<svg xmlns="http://www.w3.org/2000/svg" width="212" height="137.93"><defs><style>.a{fill:#2e3134}.b{fill:#0b5a73}</style></defs><title>Sprite</title><path class="a" d="M94.46 20.36a46 46 0 0 0-5.75.26.79.79 0 0 0 .29 1.07.75.75 0 0 0 .13.06c.6.12 4.43-.16 4.64-.07s.12 4.67.33 4.95a1.38 1.38 0 0 0 1.37.17c.35-.21 0-4.05 0-5.12s-.72-1.3-1-1.32zm3.85-14.78c-.25 0-.34 1.28-.69 2.14A21.08 21.08 0 0 1 95 12c-1 1.26-2.5 1.44-2.69 1.7a.77.77 0 0 0 .81 1.3 7.46 7.46 0 0 0 4-2.93 17.15 17.15 0 0 0 2.41-5.83c0-.81-1-.63-1.21-.61zM113 17.11c.3.14 3.17.25 3.43.3s.19 2.21.37 2.53.53.38 1 .26.38-3.95.12-4.07A31.08 31.08 0 0 0 113 16c-.47.13-.3 1 0 1.11zm-11.46 11.41c-.28.48.16 11.24.25 11.59s1.28.35 1.46.14-.25-9.76-.34-11-1.22-1-1.37-.73zM129 47.38a4.74 4.74 0 0 0-1.14-3.09 3 3 0 0 0-2.18-.69c-.58.11-4 2.2-7.21 3.62a8.43 8.43 0 0 1-7-.3 6.06 6.06 0 0 1-2.11-2.69 22 22 0 0 1-.93-5.91c-.11-2.3-.16-8.59-.07-9s1.7-.42 3.51-.42 8.9-.14 10.23-.28 1.57-.6 1.67-1.07 0-5 .16-6.34a23.49 23.49 0 0 0 .21-3.93c-.12-.3-1.07-2.58-1.65-2.83a71.5 71.5 0 0 0-7.14-.79c-1.07-.07-6.5-.14-6.59-.19a3.08 3.08 0 0 1 0-1.35c.1-.76 0-5.57-.09-6.43s0-2.44-.42-2.84S105.78.29 105 .1 98.36 0 97.45 0a2.6 2.6 0 0 0-1.9.77c-.16.32-.35 2.34-.81 4a16.34 16.34 0 0 1-3.46 5.53 15.84 15.84 0 0 1-5.4 3.58c-1.3.49-2.25.48-2.53.65s-.35 1.35-.3 2.23-.17 7.62 0 8.09 1 .39 2 .48 5.62.1 5.76.12.16 1.49.14 5.37.23 11.17.37 15.12.81 8.93 3.17 12 5.25 4.91 11.74 5.79a26.49 26.49 0 0 0 15.49-2.53c4.18-1.93 6.66-4.33 6.92-5.32a72.73 72.73 0 0 0 .26-8.48zm-4.87 7.51c-.12.18-1.14 1.18-1.3.93S120 49.1 119.67 49s-1 .23-.9.63 3.11 6.71 3.08 6.83-1.51.93-1.69.74-2.88-6.5-3.11-6.6-1.14.37-1.07.72 3.3 6.3 3.18 6.44-1.44.81-1.81.63-3.18-6.88-3.43-7-1.21.21-1 .74 3.08 6.7 3 6.86-1.11.56-1.34.37-3.13-7.39-3.39-7.48-1.07.56-1 .79 3.06 6.85 2.85 7-1.11.37-1.3.12-3-6.23-3.18-6.3-.9.37-1 .56 3 5.57 2.64 5.78a2.56 2.56 0 0 1-2-.09c-.29-.33-2.39-5.53-2.66-5.62s-1.07.23-1 .6 2.55 4.86 2.51 5a3.79 3.79 0 0 1-1.83-.14c-.33-.19-2-4.25-2.3-4.35a.63.63 0 0 0-.79.41.44.44 0 0 0 0 .1c0 .42 1.48 3.21 1.23 3.33a4.72 4.72 0 0 1-2.09-.49c-.19-.2-1.27-2.58-1.65-2.58s-.74.23-.72.48a14.77 14.77 0 0 0 .6 1.61 5.1 5.1 0 0 1-1.06-.49c-.3-.23-3.64-2.39-4.6-5s-1-7.37-1-10.57-.37-11.17-.37-14.12.21-3.68-.47-3.91-4.83.07-6 .16-1.37.07-1.42-.11-.23-7.86.17-8.32c.15-.18 2.92-.68 4.54-1.7a17.87 17.87 0 0 0 5-5.09 17.66 17.66 0 0 0 2.36-5.28 4.93 4.93 0 0 1 .51-2c.17-.1 7.54-.19 7.91.32s.33 4.3.37 7.18-.11 5.51.7 5.67 4.66.23 8.12.42 5.13.21 5.4.49-.25 2-.48 3.37a35.54 35.54 0 0 0-.19 5.36V25a9.55 9.55 0 0 1-2 0c-.14-.14-2.81-5.74-3.08-5.74s-1 .47-.86.82 2.73 4.92 2.57 5a2.6 2.6 0 0 1-1.3 0c-.18-.14-2.55-4.74-2.78-4.79s-.9.49-.79.81 2.53 4.09 2.39 4.14a7.4 7.4 0 0 1-1.76 0c-.12-.09-1.81-3.92-2.25-4.06s-1.26.25-1 .55a34.8 34.8 0 0 1 2 3.58 5.2 5.2 0 0 1-1.67 0c-.16-.14-1.64-3.23-2-3.34s-1 .23-.92.6 1.32 2.51 1.37 2.67-1.7.3-2 1.23a52.09 52.09 0 0 0-.28 8.83c.09 4.3.6 8.37 1.74 10.18a8.25 8.25 0 0 0 5.87 3.6c2.66.39 3.38.42 4.36.23a15 15 0 0 0 3.2-1c.65-.35.9-.61 1.09-.45s2.29 5 2.74 5.77.53 1 .42 1.23zm1.16-1.19c-.17.24-.47.26-.58.07s-2.71-5.87-2.41-6.34c.2-.28.83-.39 1-.19a22.42 22.42 0 0 1 1.7 3.35 13 13 0 0 1 .26 3.11zm-.07-5.64a6.19 6.19 0 0 1-.84-1.56c0-.32.77-.81.91-.6s.14 2.27-.07 2.16zM62.47 17.35a8.59 8.59 0 0 0 1-2.33c.09-.86.09-1.86-.34-2.24s-2.15.24-3.54.67a39.31 39.31 0 0 1-4.16.85s-1.72-5.08-4.5-7.08-6.46-2-9.57-1.33-6.93 2.71-8.7 4.8-3.3 6.27-3.83 7.94-1.58 4.56-2.78 4.8-3.44-.62-5.35-1.81a98.24 98.24 0 0 1-9.38-7.51c-2.49-2.28-6-6.22-7.18-6s-2.53 4.39-2.53 7.34 2.63 5.79 2.63 5.79a11.37 11.37 0 0 0 .58 8.55A9.48 9.48 0 0 0 8 33.12a8.65 8.65 0 0 0 .34 4.37c.48 1.43 3 3.23 3 3.23a11.77 11.77 0 0 1-3.84 1.85c-2.35.67-6.8 0-7.27 0s-.05 6-.05 6.89a2.79 2.79 0 0 0 1.38 2.14c.77.57 6.94 3.66 15.6 5.89a30.39 30.39 0 0 0 20.62-2C43 53.31 48.5 46.47 52.09 41s6-13.44 6-13.44a29.39 29.39 0 0 0 3.25-2.14A7.29 7.29 0 0 0 64 20.06a4 4 0 0 0-1.53-2.71zm-4.31 3.18c.58 0 3-1.38 3.3-1.14s-.71 2.09-2.48 3.14-3.11 1.56-3.45 1.47-1.53-2.47-1.77-2.44-.79.5-.65.82 1.55 2.18 1.4 2.46-.21.43-.43.25-1.54-3-1.9-3.06-.86.71-.65 1.07 2 2.63 1.94 3-.43 2-.57 1.75-2.33-4.28-2.55-4.24a1.67 1.67 0 0 0-.61 1.24c.11.29 2.66 4 2.66 4.31s-.76 1.93-1 1.64-2.48-5-2.69-5-.83.78-.79 1 2.87 4.95 2.94 5.31-.61 2.38-.86 2.24-2.55-5.88-2.83-5.91-.72.82-.61 1.17 2.8 5.45 2.83 5.88-.43 1.18-.57 1.07-3-7.27-3.3-7.23-.68.75-.43 1.57 3.19 6.16 3.23 6.59-.72 1.42-.83 1.24-3.19-7-3.48-6.91a1.54 1.54 0 0 0-.43 1.57c.25.43 3.41 6 3.41 6.13s-.83 1.46-1 1.35-2.87-6.41-3.16-6.37a1 1 0 0 0-.54 1.31v.08c.32.71 3.12 5.45 3 5.77s-.86 1.39-1 1.14-3-6.7-3.3-6.7-1.12.71-.83 1.28 3.48 6.2 3.34 6.34-1.26 1.61-1.44 1.5-3.23-6.62-3.55-6.52-.79.61-.54 1.07 3.41 6 3.34 6.17-.86.89-1.08.64-3.16-6.1-3.48-6.1-1 .93-.79 1.29 3.66 5.66 3.52 5.91-1.22 1.18-1.36 1-2.8-5.56-3.34-5.52-.93.85-.68 1.14 2.9 4.78 2.9 4.78-1.29.78-1.51.53-2.4-5.2-2.62-5.2-1.14.57-.75 1.14 2.58 4.35 2.37 4.52-.9.5-1.11.25-2.44-5.2-2.66-5.2-1.08.36-.86.71 2.51 5 2.4 5.06-1.54.5-1.72.32-2.12-4.31-2.44-4.31a.72.72 0 0 0-.57.75c.07.25 2.11 3.81 2 3.88a5.17 5.17 0 0 1-1.66.18c-.14-.1-2-4.38-2.26-4.45s-.93.5-.79.89 1.8 3.56 1.62 3.63-1.4.15-1.58-.1-1.65-3.71-2-3.78-.9.11-.69.64 1.91 3.56 1.65 3.56a9.3 9.3 0 0 1-1.75-.1c-.15-.11-1.62-3.64-1.87-3.71s-1.07-.14-.93.32 1.73 3.17 1.43 3.17a6 6 0 0 1-2-.53c-.25-.25-1.58-3.49-1.86-3.53s-.9.29-.83.71 1.37 2.75 1 2.68-1.79-.32-1.83-.5a22.22 22.22 0 0 0-1.72-3.32c-.25-.14-1.11 0-.9.43a12.2 12.2 0 0 1 1 2.39 36.61 36.61 0 0 1-6.32-2.42c-2.79-1.43-5.31-3.64-5-3.71s3.94.21 6.42-.71 4.95-1.89 5.1-2.18-.29-.92-.4-1-3.12-1-3.77-3.14-.14-4.52-.53-4.81a7 7 0 0 1-3.41-4.24c-1-3.1.11-7.3-.11-7.59s-.56-.86-.91-.77S3.24 17.25 3.19 15a12.42 12.42 0 0 1 1.2-5.32c.2 0 6.65 6.18 10 9s7.37 5.8 9.72 6.18 3.3.47 4.4-1.76 2.29-7.7 4-10.21a14.63 14.63 0 0 1 9.57-6.08c4.44-.72 7.79.52 9.56 3s1.87 5.7 2.3 6 2.34.19 4.64-.61a20.35 20.35 0 0 1 3.25-1 5.41 5.41 0 0 1-2 2.71c-1.48 1.2-2.53 2.09-2.53 2.63a.89.89 0 0 0 .86 1zm-52-4.17c-.68-.53-.39-1.82-.21-2.74s-1.3-.72-1.55.32a3.43 3.43 0 0 0 .86 3.17c.83.71 1.6.67 1.83.5s-.3-.71-1-1.25zm20.08 10.16c-.54-.07-1.87.64-3.26-.07s-2.77-2.39-3.38-2.18c-.43.15-.86.71.18 1.68a7.5 7.5 0 0 0 4.56 1.78c1.58 0 2.44-1.14 1.9-1.21zm9.83-12.58c-.36-.11-1.86.89-2.58 2.14s-1.8 3.63-1 4.09c.55.31.82-.07 1.26-1.42a13.35 13.35 0 0 1 1.72-3.49c.46-.57.93-1.21.57-1.32zM198.75 3.07C198.43.31 191.93 0 188.23 0a24.34 24.34 0 0 0-12.6 3.09 15.18 15.18 0 0 0-7.41 10.33c-.65 2.89.13 11.31.13 11.51s-3.89.19-5.39.26-1.82.72-2 1.12.65 11.38.65 11.38l.46 3.94c.84.46 5 .27 5.71.4s1 1.12 1 3.88.46 13.35.52 15.52 1 2.17 3.38 2.24 11.37.33 11.89.33 1-.66 1-2.7.65-19.2.71-19.6 1.43 0 2.6 0 6.75-.39 7.73-.52S198 30.78 198 27.43s-2.14-3.49-3.51-3.55-7.86.19-8.25-.07 1.24-5.39 3.38-6.45 7.41-.46 8.06-.33 1.1-1.38 1.17-2.56.13-8.62-.2-11.38zm-4.64 22a5.45 5.45 0 0 1 1.39 1.48c.26.43-.13 1.19-.22 1.25a14.78 14.78 0 0 1-1.33-2c-.17-.3.05-.73.16-.73zm3.34-12.4c-.58.07-6.36-.52-9.61.66a8.59 8.59 0 0 0-5.26 6.38c-.2 1.84-.26 5.26.26 5.26s5.13.1 6.88.17 2.7 0 2.86.19q1.39 1.94 2.6 4c0 .23-.26 1.42-.39 1.25s-2.44-4.21-2.6-4-.58.79-.29 1.21 2.76 4.18 2.73 4.34-.33 1.06-.49.83-2.95-5.07-3.12-5-.61.69-.39 1.08 3.25 4.64 3.28 4.87 0 2-.22 1.91-2.93-5.23-3.38-5.23-.62.89-.36 1.22 3.48 5.09 3.48 5.19-.75.56-1 .36-2.9-5.36-3.16-5.36-1 .33-.75.69 2.76 4.48 2.63 4.51a.89.89 0 0 1-1-.2c-.36-.39-2.4-4-2.66-4s-.75.63-.49 1 2.53 3.19 2.27 3.25a4.18 4.18 0 0 1-1.65-.1c-.1-.13-1.4-2.69-1.69-2.69s-.68.46-.52.75a19.83 19.83 0 0 1 1.07 1.91c-.1 0-3-.16-3.12.2s.16 2.79 0 2.7-1.46-2.73-1.66-2.73-.55.75-.42 1.08 2.14 2.8 2.21 3.06.07 2.2-.06 1.94a34.73 34.73 0 0 0-2.21-3.65 2.17 2.17 0 0 0-.39 1.15c.06.2 2.66 3.88 2.73 4.14a11 11 0 0 1 0 2.57c-.13-.2-2.92-5.53-3.15-5.49s-.42 1.15-.29 1.51 3.31 5.26 3.35 5.53.06 1.57-.07 1.48-3.54-6.42-3.7-6.32a2.4 2.4 0 0 0-.2 1.42c.1.39 3.9 6.31 3.93 6.44a12.2 12.2 0 0 1-.16 2.63c-.13-.13-4-6.9-4.19-6.87s-.39 1.21-.22 1.51 4.48 6.48 4.51 6.81.16 1.94 0 1.87-4.71-7.73-4.87-7.69-.39 1-.32 1.28 5.13 7.93 5.13 8.19 0 .49-.33.49a1.08 1.08 0 0 1-.91-.26c-.29-.3-4.48-7.27-4.77-7.2s-.36 1.18-.26 1.54 4.55 6 4.38 6-6-.36-6.49-.36a3.07 3.07 0 0 1-.85-.13s.2-.26-.35-.86-1.37-1.54-1.72-1.31-.23.62 0 .85 1.13.92 1 1a6.19 6.19 0 0 1-2.6-.26c-.1-.23-.13-9.67-.19-13s-.23-8-1-8.48-6-.63-6.33-.92-.91-10.72-.52-10.79 5.39.13 6.24-.4a2.46 2.46 0 0 0 .91-2.63c-.13-1.18-.91-9.4.58-12.56a16.54 16.54 0 0 1 9.09-8c4.63-1.7 10.34-1.6 14.3-1.04s4.36 1.25 4.42 3.15.13 7.9-.46 8zm-26.72 13.49c-.23 0-.2 1-.2 1.34s-2.11.14-2.63.1-1 .11-.94.53c0 .16 0 .56.19.66s4.22.13 4.61.13.3-2 .23-2.5-.99-.3-1.26-.26zm6-19.28a12.21 12.21 0 0 0-4.15 4.12 9.59 9.59 0 0 0-1.58 4.83c0 1.32.19 2.18.42 2.3s.62 0 .91 0 0-3.78 1.69-6.78a7.3 7.3 0 0 1 4.61-3.75c.42 0 .36-.65.26-1.11s-1.1-.1-2.14.42zm7.76 6.38a3.4 3.4 0 0 0-2 .89 12.5 12.5 0 0 0-1.89 3.13c-.19.62-.1 1.51.23 1.64a1 1 0 0 0 .91-.16c.22-.17.22-1.48.74-2.6s2.11-1.84 2.28-2 0-.83-.23-.9zm7.56-10.45c-.57-.11-.84 1-.55 1.15a24.62 24.62 0 0 0 2.83.49c.55.07.91 0 1 .4s0 3.65.19 3.81 1.2.49 1.2-.36.13-4.37-.26-4.7-3.76-.66-4.45-.79zm-18.53 52.88c-.39.11-.52.36-.16 1.05a13.16 13.16 0 0 0 2.82 3.09c.33 0 .81-.39.49-.82s-2.66-3.45-3.15-3.32zm2.24-1.09c-.13-.1-.71.56-.59.79 0 0 2.7 3.55 3.06 4s.71.59 1.07.39-.13-.79-.39-1.31a47.24 47.24 0 0 0-3.15-3.91z"/><path class="b" d="M94.46 94.36a48 48 0 0 0-5.75.26.8.8 0 0 0 .29 1.08h.13c.6.12 4.43-.16 4.64-.07s.12 4.67.33 4.95a1.36 1.36 0 0 0 1.37.17c.35-.21 0-4 0-5.12s-.72-1.3-1-1.32zm3.85-14.78c-.25 0-.34 1.28-.69 2.14A20.81 20.81 0 0 1 95 86c-1 1.26-2.5 1.44-2.69 1.7a.77.77 0 0 0 .81 1.3 7.41 7.41 0 0 0 4-2.93 17.07 17.07 0 0 0 2.41-5.83c0-.81-1-.63-1.21-.61zM113 91.11c.3.14 3.17.25 3.43.3s.19 2.21.37 2.53.53.38 1 .26.38-4 .12-4.07A32.32 32.32 0 0 0 113 90c-.47.13-.3 1 0 1.11zm-11.46 11.41c-.28.48.16 11.24.25 11.59s1.28.35 1.46.14-.25-9.76-.34-11-1.22-1-1.37-.73zM129 121.38a4.74 4.74 0 0 0-1.14-3.09 3.07 3.07 0 0 0-2.18-.69c-.58.11-4 2.2-7.21 3.62a8.4 8.4 0 0 1-7-.3 6 6 0 0 1-2.11-2.69 21.84 21.84 0 0 1-.93-5.91c-.11-2.3-.16-8.59-.07-9s1.7-.42 3.51-.42 8.9-.14 10.23-.28 1.57-.6 1.67-1.07 0-5 .16-6.34a23.43 23.43 0 0 0 .21-3.93c-.12-.3-1.07-2.58-1.65-2.83q-3.55-.57-7.14-.79c-1.07-.07-6.5-.14-6.59-.19a3.07 3.07 0 0 1 0-1.35c.1-.76 0-5.57-.09-6.43s0-2.44-.42-2.84-2.47-2.56-3.25-2.75-6.64-.1-7.55-.1a2.64 2.64 0 0 0-1.9.77c-.16.32-.35 2.34-.81 4a16.34 16.34 0 0 1-3.46 5.53 15.55 15.55 0 0 1-5.4 3.58c-1.3.49-2.25.48-2.53.65s-.35 1.35-.3 2.23-.17 7.62 0 8.09 1 .39 2 .48 5.62.1 5.76.12.16 1.49.14 5.37.23 11.17.37 15.12.81 8.93 3.17 12 5.25 4.91 11.74 5.79a26.49 26.49 0 0 0 15.49-2.53c4.18-1.93 6.66-4.33 6.92-5.32a72.67 72.67 0 0 0 .26-8.48zm-4.87 7.51c-.12.18-1.14 1.18-1.3.93s-2.83-6.72-3.16-6.82-1 .23-.9.63 3.11 6.71 3.08 6.83-1.51.93-1.69.74-2.88-6.5-3.11-6.6-1.14.37-1.07.72 3.3 6.3 3.18 6.44-1.44.81-1.81.63-3.18-6.88-3.43-7-1.21.21-1 .74 3.08 6.7 3 6.86-1.11.56-1.34.37-3.13-7.39-3.39-7.48-1.07.56-1 .79 3.06 6.85 2.85 7-1.11.37-1.3.12-3-6.23-3.18-6.3-.9.37-1 .56 3 5.57 2.64 5.78a2.56 2.56 0 0 1-2-.09c-.29-.33-2.39-5.53-2.66-5.62s-1.07.23-1 .6 2.55 4.86 2.51 5a3.67 3.67 0 0 1-1.83-.14c-.33-.19-2-4.25-2.3-4.35a.64.64 0 0 0-.79.42.29.29 0 0 0 0 .09c0 .42 1.48 3.21 1.23 3.33a4.59 4.59 0 0 1-2.09-.49c-.19-.21-1.28-2.58-1.65-2.62s-.74.23-.72.48a14.77 14.77 0 0 0 .6 1.61 4.63 4.63 0 0 1-1.06-.49c-.3-.23-3.64-2.39-4.6-5s-1-7.37-1-10.57-.37-11.17-.37-14.12.21-3.64-.47-3.87-4.83.07-6 .16-1.37.07-1.42-.11-.23-7.86.17-8.32c.15-.18 2.92-.68 4.54-1.7a17.87 17.87 0 0 0 5-5.09 17.66 17.66 0 0 0 2.36-5.28 5 5 0 0 1 .51-2c.17-.1 7.54-.19 7.91.32s.33 4.3.37 7.18-.11 5.51.7 5.67 4.66.23 8.12.42 5.13.21 5.4.49-.25 2-.48 3.37a35.59 35.59 0 0 0-.19 5.36V99a9.55 9.55 0 0 1-2 0c-.14-.14-2.81-5.74-3.08-5.74s-1 .47-.86.82 2.73 4.92 2.57 5a2.6 2.6 0 0 1-1.3 0c-.18-.14-2.55-4.74-2.78-4.79s-.9.49-.79.81 2.53 4.09 2.39 4.14a6.48 6.48 0 0 1-1.76 0c-.12-.09-1.81-3.92-2.25-4.06s-1.26.25-1 .55a35.88 35.88 0 0 1 2 3.58 5.2 5.2 0 0 1-1.67 0c-.16-.14-1.64-3.23-2-3.34s-1 .23-.92.6 1.32 2.51 1.37 2.67-1.7.3-2 1.23a52.12 52.12 0 0 0-.28 8.83c.09 4.3.6 8.37 1.74 10.18a8.22 8.22 0 0 0 5.87 3.6c2.66.39 3.38.42 4.36.23a14.49 14.49 0 0 0 3.2-1c.65-.35.9-.61 1.09-.45s2.29 5 2.74 5.77.53 1 .42 1.23zm1.16-1.19c-.17.24-.47.26-.58.07s-2.71-5.87-2.41-6.34c.2-.28.83-.39 1-.19a22.42 22.42 0 0 1 1.7 3.35 13 13 0 0 1 .26 3.11zm-.07-5.64a6 6 0 0 1-.84-1.56c0-.32.77-.81.91-.6s.14 2.27-.07 2.16zM62.47 91.35a8.46 8.46 0 0 0 1-2.33c.09-.86.09-1.86-.34-2.24s-2.15.24-3.54.67a37 37 0 0 1-4.16.85s-1.72-5.08-4.5-7.08-6.46-2-9.57-1.33-6.93 2.71-8.7 4.8-3.3 6.27-3.83 7.94-1.58 4.56-2.78 4.8-3.44-.62-5.35-1.81a95.21 95.21 0 0 1-9.38-7.51c-2.49-2.28-6-6.22-7.18-6s-2.53 4.39-2.53 7.34 2.63 5.79 2.63 5.79a11.37 11.37 0 0 0 .58 8.55A9.4 9.4 0 0 0 8 107.12a8.64 8.64 0 0 0 .34 4.37c.48 1.43 3 3.23 3 3.23a11.57 11.57 0 0 1-3.84 1.85c-2.35.67-6.8 0-7.27 0s-.05 6-.05 6.89a2.76 2.76 0 0 0 1.38 2.14c.77.57 6.94 3.66 15.6 5.89a30.39 30.39 0 0 0 20.62-2c5.22-2.18 10.72-9 14.31-14.49s6-13.44 6-13.44a28 28 0 0 0 3.25-2.14A7.29 7.29 0 0 0 64 94.06a4 4 0 0 0-1.53-2.71zm-4.31 3.18c.58 0 3-1.38 3.3-1.14s-.71 2.09-2.48 3.14-3.11 1.56-3.45 1.47-1.53-2.47-1.77-2.44-.79.5-.65.82 1.55 2.18 1.4 2.46-.21.43-.43.25-1.54-3-1.9-3.06-.86.71-.65 1.07 2 2.63 1.94 3-.43 2-.57 1.75-2.33-4.28-2.55-4.24a1.67 1.67 0 0 0-.61 1.24c.11.29 2.66 4 2.66 4.31s-.76 1.93-1 1.64-2.48-5-2.69-5-.83.78-.79 1 2.87 5 2.94 5.31-.61 2.38-.86 2.24-2.55-5.88-2.83-5.91-.72.82-.61 1.17 2.8 5.45 2.83 5.88-.43 1.18-.57 1.07-3-7.27-3.3-7.23-.68.75-.43 1.57 3.19 6.16 3.23 6.59-.72 1.42-.83 1.24-3.19-7-3.48-6.91a1.54 1.54 0 0 0-.43 1.57c.25.43 3.41 6 3.41 6.13s-.83 1.46-1 1.35-2.87-6.41-3.16-6.37a1 1 0 0 0-.54 1.31.59.59 0 0 0 0 .08c.32.71 3.12 5.45 3 5.77s-.86 1.39-1 1.14-3-6.7-3.3-6.7-1.12.71-.83 1.28 3.48 6.2 3.34 6.34-1.26 1.61-1.44 1.5-3.23-6.62-3.55-6.52-.79.61-.54 1.07 3.41 6 3.34 6.17-.86.89-1.08.64-3.16-6.1-3.48-6.1-1 .93-.79 1.29 3.66 5.66 3.52 5.91-1.22 1.18-1.36 1-2.8-5.56-3.34-5.52-.93.85-.68 1.14 2.9 4.78 2.9 4.78-1.29.78-1.51.53-2.4-5.2-2.62-5.2-1.14.57-.75 1.14 2.58 4.35 2.37 4.52-.9.5-1.11.25-2.44-5.2-2.66-5.2-1.08.36-.86.71 2.51 5 2.4 5.06-1.54.5-1.72.32-2.12-4.31-2.44-4.31a.73.73 0 0 0-.57.75c.07.25 2.11 3.81 2 3.88a4.66 4.66 0 0 1-1.66.18c-.14-.1-2-4.38-2.26-4.45s-.93.5-.79.89 1.8 3.56 1.62 3.63-1.4.15-1.58-.1-1.65-3.71-2-3.78-.9.11-.69.64 1.91 3.56 1.65 3.56a9.3 9.3 0 0 1-1.75-.1c-.15-.11-1.62-3.64-1.87-3.71s-1.07-.14-.93.32 1.72 3.17 1.43 3.17a5.6 5.6 0 0 1-2-.53c-.25-.25-1.58-3.49-1.86-3.53s-.9.29-.83.71 1.37 2.75 1 2.68-1.79-.32-1.83-.5a22.22 22.22 0 0 0-1.72-3.32c-.25-.14-1.11 0-.9.43a12.2 12.2 0 0 1 1 2.39 35.05 35.05 0 0 1-6.32-2.42c-2.79-1.43-5.31-3.64-5-3.71s3.94.21 6.42-.71 4.95-1.89 5.1-2.18-.29-.92-.4-1-3.12-1-3.77-3.14-.14-4.52-.53-4.81a7 7 0 0 1-3.41-4.24c-1-3.1.11-7.3-.11-7.59s-.56-.86-.91-.77S3.24 91.25 3.19 89a12.42 12.42 0 0 1 1.2-5.32c.2 0 6.65 6.18 10 9s7.37 5.8 9.72 6.18 3.3.47 4.4-1.76 2.29-7.7 4-10.21a14.66 14.66 0 0 1 9.57-6.08c4.44-.72 7.79.52 9.56 3s1.87 5.7 2.3 6 2.34.19 4.64-.61a21.43 21.43 0 0 1 3.25-1 5.37 5.37 0 0 1-2 2.71c-1.48 1.2-2.53 2.09-2.53 2.63a.89.89 0 0 0 .86 1zm-52-4.17c-.68-.53-.39-1.82-.21-2.74s-1.3-.72-1.55.32a3.42 3.42 0 0 0 .86 3.17c.83.71 1.6.67 1.83.5s-.3-.71-1-1.25zm20.08 10.16c-.54-.07-1.87.64-3.26-.07s-2.77-2.39-3.38-2.18c-.43.15-.86.71.18 1.68a7.44 7.44 0 0 0 4.56 1.78c1.58 0 2.44-1.14 1.9-1.21zm9.83-12.58c-.36-.11-1.86.89-2.58 2.14s-1.8 3.63-1 4.09c.55.31.82-.07 1.26-1.42a13.5 13.5 0 0 1 1.72-3.49c.46-.57.93-1.21.57-1.32zm162.68-10.87c-.32-2.76-6.82-3.07-10.52-3.07a24.53 24.53 0 0 0-12.6 3.09 15.21 15.21 0 0 0-7.41 10.33c-.65 2.89.13 11.31.13 11.51s-3.89.19-5.39.26-1.82.72-2 1.12.65 11.38.65 11.38l.46 3.94c.84.46 5 .27 5.71.4s1 1.12 1 3.88.46 13.35.52 15.52 1 2.17 3.38 2.24 11.37.33 11.89.33 1-.66 1-2.7.65-19.2.71-19.6 1.43 0 2.6 0 6.75-.39 7.73-.52 1.36-10.4 1.36-13.75-2.14-3.49-3.51-3.55-7.86.19-8.25-.07 1.24-5.39 3.38-6.45 7.41-.46 8.06-.33 1.1-1.38 1.17-2.56.13-8.62-.2-11.38zm-4.64 22a5.75 5.75 0 0 1 1.39 1.48c.26.43-.13 1.19-.22 1.25a13.62 13.62 0 0 1-1.33-2c-.17-.3.05-.73.16-.73zm3.34-12.4c-.58.07-6.36-.52-9.61.66a8.61 8.61 0 0 0-5.26 6.38c-.2 1.84-.26 5.26.26 5.26s5.13.1 6.88.17 2.7 0 2.86.19c.93 1.29 1.8 2.63 2.6 4 0 .23-.26 1.42-.39 1.25s-2.44-4.21-2.6-4-.58.79-.29 1.21 2.76 4.18 2.73 4.34-.33 1.06-.49.83-2.95-5.07-3.12-5-.61.69-.39 1.08 3.25 4.64 3.28 4.87 0 2-.22 1.91-2.93-5.23-3.38-5.23-.62.89-.36 1.22 3.48 5.09 3.48 5.19-.75.56-1 .36-2.9-5.36-3.16-5.36-1 .33-.75.69 2.76 4.48 2.63 4.51a.89.89 0 0 1-1-.2c-.36-.39-2.4-4-2.66-4s-.75.63-.49 1 2.53 3.19 2.27 3.25a4 4 0 0 1-1.65-.1c-.1-.13-1.4-2.69-1.69-2.69s-.68.46-.52.75a21.11 21.11 0 0 1 1.07 1.91c-.1 0-3-.16-3.12.2s.16 2.79 0 2.7-1.46-2.73-1.66-2.73-.55.75-.42 1.08 2.14 2.8 2.21 3.06.07 2.2-.06 1.94a35.78 35.78 0 0 0-2.21-3.65 2.17 2.17 0 0 0-.39 1.15c.06.2 2.66 3.88 2.73 4.14a11 11 0 0 1 0 2.57c-.13-.2-2.92-5.53-3.15-5.49s-.42 1.15-.29 1.51 3.31 5.26 3.35 5.53.06 1.57-.07 1.48-3.54-6.42-3.7-6.32a2.41 2.41 0 0 0-.2 1.42c.1.39 3.9 6.31 3.93 6.44a12.16 12.16 0 0 1-.16 2.63c-.13-.13-4-6.9-4.19-6.87s-.39 1.21-.22 1.51 4.48 6.48 4.51 6.81.16 1.94 0 1.87-4.71-7.73-4.87-7.69-.39 1-.32 1.28 5.13 7.93 5.13 8.19 0 .49-.33.49a1 1 0 0 1-.91-.26c-.29-.3-4.48-7.27-4.77-7.2s-.36 1.18-.26 1.54 4.55 6 4.38 6-6-.36-6.49-.36a2.74 2.74 0 0 1-.85-.13s.2-.26-.35-.86-1.37-1.54-1.72-1.31-.23.62 0 .85 1.13.92 1 1a6.19 6.19 0 0 1-2.6-.26c-.1-.23-.13-9.67-.19-13s-.23-8-1-8.48-6-.63-6.33-.92-.91-10.72-.52-10.79 5.39.13 6.24-.4a2.45 2.45 0 0 0 .91-2.63c-.13-1.18-.91-9.4.58-12.56a16.54 16.54 0 0 1 9.09-8c4.63-1.75 10.34-1.65 14.3-1.09s4.36 1.25 4.42 3.15.13 7.9-.46 8zm-26.72 13.49c-.23 0-.2 1-.2 1.34s-2.11.14-2.63.1-1 .11-.94.53c0 .16 0 .56.19.66s4.22.13 4.61.13.3-2 .23-2.5-.99-.3-1.26-.26zm6-19.28a12.21 12.21 0 0 0-4.15 4.12 9.59 9.59 0 0 0-1.58 4.83c0 1.32.19 2.18.42 2.3s.62 0 .91 0 0-3.78 1.69-6.78a7.36 7.36 0 0 1 4.61-3.75c.42 0 .36-.65.26-1.11s-1.1-.1-2.14.42zm7.76 6.38a3.4 3.4 0 0 0-2 .89 12.5 12.5 0 0 0-1.89 3.13c-.19.62-.1 1.51.23 1.64a1 1 0 0 0 .91-.16c.22-.17.22-1.48.74-2.6s2.11-1.84 2.28-2 0-.83-.23-.9zm7.56-10.45c-.57-.11-.84 1-.55 1.15a22.63 22.63 0 0 0 2.83.49c.55.07.91 0 1 .4s0 3.65.19 3.81 1.2.49 1.2-.36.13-4.37-.26-4.7-3.76-.66-4.45-.79zm-18.53 52.88c-.39.11-.52.36-.16 1.05a13 13 0 0 0 2.82 3.09c.33 0 .81-.39.49-.82s-2.66-3.45-3.15-3.32zm2.24-1.09c-.13-.1-.71.56-.59.79 0 0 2.7 3.55 3.06 4s.71.59 1.07.39-.13-.79-.39-1.31a49 49 0 0 0-3.15-3.91z"/></svg>