<svg width="151" height="97" fill="none" xmlns="http://www.w3.org/2000/svg"><path d="M96.7 1.5v42H54.3v-42h42.4zM98.2 0H52.8v45h45.5V0h-.1z" fill="#666"/><path d="M96.7 1.5v42H54.3v-42h42.4zM98.2 0H52.8v45h45.5V0h-.1z" fill="#666"/><path d="M85.3 9.5H65.5c-1.8 0-3.3 1.5-3.3 3.3v19.7c0 1.8 1.5 3.3 3.3 3.3h19.8c1.8 0 3.3-1.5 3.3-3.3V12.7c.1-1.8-1.3-3.2-3.3-3.2zm-9.8 8c2.9 0 5.3 2.3 5.3 5.1s-2.4 5.1-5.3 5.1-5.3-2.3-5.3-5.1 2.2-5.1 5.3-5.1zm9.8 14.1c0 .6-.3.8-.8.8H66.4c-.6 0-.8-.3-.8-.8V20l2.1.5c-.2.8-.3 1.5-.3 2.3 0 4.4 3.6 8 8.2 8 4.5 0 8.2-3.6 8.2-8 0-.8-.2-1.5-.3-2.3l2-.5-.2 11.6zm0-14.7c0 .5-.3.8-.8.8h-3.3c-.5 0-.8-.3-.8-.8v-3.3c0-.5.3-.8.8-.8h3.3c.5 0 .8.3.8.8v3.3zm63.6-15.3v42h-42.4v-42h42.4zm1.5-1.5H105v45h45.4V.1z" fill="#666"/><path d="M148.9 1.6v42h-42.4v-42h42.4zm1.5-1.5H105v45h45.4V.1z" fill="#666"/><path d="M138.5 17.8c0 6.3-3.5 11-8.6 11-1.7 0-3.3-.9-3.9-2 0 0-.9 3.8-1.1 4.4-.8 2.6-2.7 5-2.9 5.3-.2.2-.3.2-.5-.2 0-.3-.6-3.5 0-6 .3-1.4 2.1-8.7 2.1-8.7s-.5-1.1-.5-2.6c0-2.4 1.4-4.2 3.2-4.2 1.5 0 2.1 1.1 2.1 2.4 0 1.5-.9 3.6-1.4 5.7-.5 1.7.9 3 2.6 3 3 0 5.2-3.9 5.2-8.6 0-3.5-2.4-6.2-6.7-6.2-4.8 0-7.9 3.6-7.9 7.7 0 1.4.5 2.4 1.1 3.2.3.3.3.5.3.9-.2.3-.3 1.1-.3 1.4-.2.5-.5.6-.8.5-2.3-.9-3.3-3.3-3.3-6.2 0-4.5 3.8-9.9 11.5-9.9 5.8 0 9.8 4.3 9.8 9.1zM44 1.5v42.1H1.5V1.5H44zM45.5 0H0v45.1h45.5V0z" fill="#666"/><path d="M44 1.5v42.1H1.5V1.5H44zM45.5 0H0v45.1h45.5V0z" fill="#666"/><path d="M19.6 34.7h5.2V22.6h3.3l.5-4.2h-3.8v-2.1c0-1.1.2-1.7 1.7-1.7h2.1v-4.2h-3.3c-4.1 0-5.5 2.1-5.5 5.4v2.6h-2.6v4.2h2.6c-.2 0-.2 12.1-.2 12.1z" fill="#666"/><path d="M44.1 52.7v42.1H1.6V52.7h42.5zm1.5-1.5H.1v45.1h45.5V51.2z" fill="#FB8E9A"/><path d="M44.1 52.7v42.1H1.6V52.7h42.5zm1.5-1.5H.1v45.1h45.5V51.2z" fill="#FB8E9A"/><path d="M19.6 86h5.2V73.8h3.3l.5-4.2h-3.8v-2.1c0-1.1.2-1.7 1.7-1.7h2.1v-4.2h-3.3c-4.1 0-5.5 2.1-5.5 5.4v2.4h-2.6v4.2h2.6c-.2.1-.2 12.4-.2 12.4zm77.2-33.3v42.1H54.3V52.7h42.5zm1.5-1.5H52.8v45.1h45.5V51.2z" fill="#FB8E9A"/><path d="M96.8 52.7v42.1H54.3V52.7h42.5zm1.5-1.5H52.8v45.1h45.5V51.2z" fill="#FB8E9A"/><path d="M85.4 60.6H65.6c-1.8 0-3.3 1.5-3.3 3.3v19.7c0 1.8 1.5 3.3 3.3 3.3h19.8c1.8 0 3.3-1.5 3.3-3.3V63.9c0-1.9-1.3-3.3-3.3-3.3zm-9.8 8c2.9 0 5.3 2.3 5.3 5.1 0 2.9-2.4 5.1-5.3 5.1s-5.3-2.3-5.3-5.1c-.1-2.9 2.2-5.1 5.3-5.1zm9.8 14.1c0 .6-.3.8-.8.8H66.5c-.6 0-.8-.3-.8-.8V71.1l2.1.5c-.2.8-.3 1.5-.3 2.3 0 4.4 3.6 8 8.2 8 4.5 0 8.2-3.6 8.2-8 0-.8-.2-1.5-.3-2.3l2-.5-.2 11.6zm0-14.7c0 .5-.3.8-.8.8h-3.3c-.5 0-.8-.3-.8-.8v-3.3c0-.5.3-.8.8-.8h3.3c.5 0 .8.3.8.8V68zm63.7-15.3v41.9h-42.4V52.7h42.4zm1.5-1.5h-45.5v44.9h45.5V51.2z" fill="#FB8E9A"/><path d="M149.1 52.7v41.9h-42.4V52.7h42.4zm1.5-1.5h-45.5v44.9h45.5V51.2z" fill="#FB8E9A"/><path d="M138.6 68.9c0 6.3-3.5 10.9-8.6 10.9-1.7 0-3.3-.9-3.9-1.9 0 0-.9 3.7-1.1 4.3-.8 2.5-2.7 4.9-2.9 5.2-.2.1-.3.1-.5-.1 0-.3-.6-3.4 0-6 .3-1.3 2.1-8.7 2.1-8.7s-.5-1-.5-2.5c0-2.4 1.4-4.2 3.2-4.2 1.5 0 2.1 1 2.1 2.4 0 1.5-.9 3.6-1.4 5.7-.5 1.6.9 3 2.6 3 3 0 5.2-3.9 5.2-8.5 0-3.4-2.4-6.1-6.7-6.1-4.8 0-7.9 3.6-7.9 7.6 0 1.3.5 2.4 1.1 3.1.3.3.3.4.3.9-.2.3-.3 1-.3 1.3-.2.4-.5.6-.8.4-2.3-.9-3.3-3.3-3.3-6.1 0-4.5 3.8-9.9 11.5-9.9 5.9.1 9.8 4.6 9.8 9.2z" fill="#FB8E9A"/></svg>